<?xml version="1.0" ?><svg id="Layer_1" style="enable-background:new 0 0 65 65;" version="1.1" viewBox="0 0 65 65" xml:space="preserve" xmlns="http://www.w3.org/2000/svg" xmlns:xlink="http://www.w3.org/1999/xlink"><style type="text/css">
	.st0{fill:#1C1F20;}
</style><g><path class="st0" d="M49.5,56h-16c-0.6,0-1,0.4-1,1s0.4,1,1,1h16c0.6,0,1-0.4,1-1S50.1,56,49.5,56z"/><path class="st0" d="M55.5,56h-2c-0.6,0-1,0.4-1,1s0.4,1,1,1h2c0.6,0,1-0.4,1-1S56.1,56,55.5,56z"/><path class="st0" d="M2.5,18V9c0-0.6-0.4-1-1-1s-1,0.4-1,1v9c0,0.6,0.4,1,1,1S2.5,18.6,2.5,18z"/><path class="st0" d="M1.5,6c0.6,0,1-0.4,1-1V4c0-0.6-0.4-1-1-1s-1,0.4-1,1v1C0.5,5.6,0.9,6,1.5,6z"/><path class="st0" d="M63.5,11h-1v-1c0-0.6-0.4-1-1-1s-1,0.4-1,1v1h-1c-0.6,0-1,0.4-1,1s0.4,1,1,1h1v1c0,0.6,0.4,1,1,1s1-0.4,1-1v-1   h1c0.6,0,1-0.4,1-1S64.1,11,63.5,11z"/><path class="st0" d="M16.5,58h-1v-1c0-0.6-0.4-1-1-1s-1,0.4-1,1v1h-1c-0.6,0-1,0.4-1,1s0.4,1,1,1h1v1c0,0.6,0.4,1,1,1s1-0.4,1-1v-1   h1c0.6,0,1-0.4,1-1S17.1,58,16.5,58z"/><path class="st0" d="M32.3,18.1c1.9,0,3.4-1.5,3.4-3.4c0-1.9-1.5-3.4-3.4-3.4s-3.4,1.5-3.4,3.4C28.9,16.6,30.4,18.1,32.3,18.1z"/><circle class="st0" cx="48.8" cy="26.2" r="2.4"/><circle class="st0" cx="61" cy="26.2" r="2.4"/><circle class="st0" cx="16" cy="26.2" r="2.4"/><circle class="st0" cx="3.9" cy="26.2" r="2.4"/><path class="st0" d="M8,40.8c0,3.9,0,3.9,0,7.7c16.2-2.2,32.5-2.2,48.7,0c0-3.9,0-3.9,0-7.7C40.5,38.6,24.2,38.6,8,40.8z"/><path class="st0" d="M12.5,50.1c9.3,1.3,30.4,1.3,39.7,0c-6.6-0.7-13.2-1.1-19.8-1.1C25.8,48.9,19.1,49.3,12.5,50.1z"/><path class="st0" d="M49,30.6c-0.1,0-0.1,0-0.2,0c-1.1,0-2-0.4-2.8-1c-5.5,4.7-9.4-3.2-11.7-10c-0.6,0.3-1.3,0.4-2.1,0.4   c-0.7,0-1.3-0.1-1.9-0.4c-2.2,6.7-6.2,14.6-11.6,9.9c-0.8,0.6-1.7,1-2.8,1c-0.1,0-0.1,0-0.2,0c-0.6,3.6-2.7,7.2-9.2-1   c-0.5,0.4-1.1,0.7-1.8,0.9c1,2.6,2.2,6.1,2.8,8.3c8.1-1.1,16.4-1.7,24.6-1.7c8.2,0,16.5,0.6,24.6,1.7l0.1,0   c0.6-2.2,1.9-5.7,2.8-8.4c-0.7-0.2-1.3-0.5-1.8-0.9C51.7,37.8,49.6,34.3,49,30.6z"/></g></svg>